# xmcd
#
# Track frame offsets: 
#        150
#        12838
#        29907
#        44615
#        66264
#        78008
#        87652
#        110946
#        128537
#        143358
#        159480
#        172574
#
# Disc length: 2455 seconds
#
# Revision: 0
# Processed by: cddbd v1.5.2PL0 Copyright (c) Steve Scherf et al.
# Submitted via: ExactAudioCopy v0.99pb3
#
DISCID=9609950c
DTITLE=Ken Cook - "Dad, we'll rope today"
DYEAR=2006
DGENRE=Country
TTITLE0=Kill this cow
TTITLE1=Calving
TTITLE2=Let the Hammer Down
TTITLE3=Dad, we'll rope today
TTITLE4=A Ride for the Fiddler
TTITLE5=Joy is a Choice
TTITLE6=The Reckoning
TTITLE7=Bugs' Good Advice
TTITLE8=The Renegade
TTITLE9=Gone are the Days
TTITLE10=Exercise
TTITLE11=Bloodlines
EXTD=
EXTT0=
EXTT1=
EXTT2=
EXTT3=
EXTT4=
EXTT5=
EXTT6=
EXTT7=
EXTT8=
EXTT9=
EXTT10=
EXTT11=
PLAYORDER=
